# xmcd
#
# Track frame offsets:
#	150
#	2529
#	22324
#	43250
#	63876
#	83902
#	108577
#	127553
#	146079
#	166930
#	187856
#	211256
#
# Disc length: 3019 seconds
#
# Revision: 0
# Processed by: cddbd v1.5.2PL0 Copyright (c) Steve Scherf et al.
# Submitted via: EasyCDDAExtractor 10.0.6.1
#
DISCID=990bc90c
DTITLE=eysuhl™ 조관우 - 조관우 [1997 Cream ckc0083] 실락원
DYEAR=1997
DGENRE=Pop
TTITLE0=Intro
TTITLE1=Angel Eyes
TTITLE2=결혼-Ing
TTITLE3=실락원
TTITLE4=내마음 당신 곁으로
TTITLE5=안개
TTITLE6=유배
TTITLE7=악녀
TTITLE8=보이지 않는 나
TTITLE9=소녀와 가로등
TTITLE10=Feeling
TTITLE11=실버벨 (Remix)
EXTD=
EXTT0=
EXTT1=
EXTT2=
EXTT3=
EXTT4=
EXTT5=
EXTT6=
EXTT7=
EXTT8=
EXTT9=
EXTT10=
EXTT11=
PLAYORDER=
